Hot-Indian actress  Namitha Hard Fucking 2013 -MTR
Complete name                            : Hot-Indian actress  Namitha Hard Fucking 2013 -MTR DevHot-Indian actress  Namitha Hard Fucking -MTR Dev.flv
Format                                   : Flash Video
File size                                : 29.6 MiB
Duration                                 : 8mn 40s
Overall bit rate                         : 478 Kbps
Tagged date                              : UTC 2009-12-23 05:49:55
Tagging application                      : inlet media FLVTool2 v1.0.6 - http://www.inlet-media.de/flvtool2

Video
Format                                   : VP6
Codec ID                                 : 4
Duration                                 : 8mn 39s
Bit rate                                 : 406 Kbps
Width                                    : 528 pixels
Height                                   : 400 pixels
Display aspect ratio                     : 4:3
Frame rate mode                          : Constant
Frame rate                               : 25.000 fps
Bit depth                                : 8 bits
Bits/(Pixel*Frame)                       : 0.077
Stream size                              : 25.3 MiB (85%)

Audio
Format                                   : MPEG Audio
Format version                           : Version 2
Format profile                           : Layer 3
Mode                                     : Joint stereo
Mode extension                           : MS Stereo
Codec ID                                 : 2
Codec ID/Hint                            : MP3
Duration                                 : 8mn 40s
Bit rate mode                            : Constant
Bit rate                                 : 64.0 Kbps
Channel(s)                               : 2 channels
Sampling rate                            : 22.05 KHz
Compression mode                         : Lossy
Stream size                              : 4.20 MiB (14%)


Screens... 
http://i.imgur.com/gVu2VNN.png 
http://i.imgur.com/nhjJ9hI.png 
http://i.imgur.com/qerY4xl.png 
http://i.imgur.com/jOLV4qq.png 
http://i.imgur.com/K54ZstM.png 
http://i.imgur.com/KnnLeuK.png 
http://i.imgur.com/9jAPgNu.png 
http://i.imgur.com/EuF1ePC.png
